<svg width="180" height="170" viewBox="0 0 180 170" fill="none" xmlns="http://www.w3.org/2000/svg">
<path fill-rule="evenodd" clip-rule="evenodd" d="M69.1455 10.0126C64.6664 10.01 60.1872 10.0075 55.7081 10.0268C56.6933 10.4856 57.6212 11.1164 58.2873 11.9884C59.3887 13.3559 59.8828 15.1397 59.8578 16.8792L59.8585 18.7777V18.778V18.778V18.7781V18.7781C59.8637 31.4099 59.8739 56.4476 59.2343 58.2588C58.702 59.9514 57.5462 61.4704 55.9272 62.2468C61.7577 62.2306 73.4187 62.2395 73.4187 62.2395L87.8074 54.7076C87.8074 54.7076 87.7442 41.0453 87.9236 39.316C88.1544 37.4749 89.0088 35.7236 90.3499 34.4354C89.6911 33.7252 89.0353 32.9914 88.5971 32.1179C88.0603 31.0445 87.8589 29.8313 87.8501 28.6373C87.8321 27.7719 87.8357 26.2715 87.8398 24.577V24.5763V24.5756V24.5749V24.5742C87.8484 20.9968 87.8592 16.5557 87.6736 15.3985C87.3325 13.7236 86.4354 12.1266 85.0444 11.1061C83.9871 10.3135 82.6504 9.96206 81.3387 10.0032C77.2743 10.0172 73.2099 10.0149 69.1455 10.0126ZM71.0365 54.1076L71.0409 17.2454L76.6846 17.2439L76.689 51.1917L71.0365 54.1076ZM108.46 14.7676C103.424 14.7735 93.3511 14.7676 93.3511 14.7676V61.3307L89.991 58.3515L79.6461 64.0732C79.6461 64.0732 83.0783 66.5612 85.0399 67.3553C87.303 68.3052 89.8028 68.5626 92.2379 68.4214C95.1628 68.1244 97.9699 66.895 100.23 65.026C102.165 63.4247 103.683 61.2557 104.259 58.7912C104.554 57.7312 104.551 56.631 104.547 55.5391C104.547 55.3449 104.546 55.151 104.547 54.9576C104.545 49.943 104.55 44.9288 104.554 39.9146C104.559 34.6361 104.564 29.3576 104.561 24.0788L104.564 23.934C104.599 22.4059 104.635 20.8559 105.081 19.3805C105.603 17.4968 106.831 15.8425 108.46 14.7676ZM59.7534 73.5314C65.0472 72.7829 70.0704 70.1977 73.701 66.2657C75.6656 68.3773 77.986 70.1757 80.5873 71.433C82.8181 72.5417 85.2488 73.2123 87.7133 73.5416C87.6986 80.1015 87.7104 93.2227 87.7104 93.2227C87.7104 93.2227 76.542 99.2223 70.9556 102.216C70.9438 104.922 70.9483 110.335 70.9483 110.335L76.5876 110.336C76.5876 110.336 76.592 106.242 76.5832 104.197C78.2502 103.299 79.9205 102.408 81.5907 101.517L81.5933 101.516L81.5962 101.514C83.6354 100.427 85.6745 99.339 87.7074 98.2385C87.7045 103.772 87.703 109.305 87.7074 114.839C82.3343 115.604 77.2758 118.336 73.7054 122.424C70.1424 118.352 65.1089 115.621 59.7549 114.845C59.7616 113.408 59.7607 111.971 59.7597 110.533C59.759 109.455 59.7582 108.377 59.7608 107.3C59.7667 106.467 59.7108 105.617 59.4079 104.835C59.0329 103.806 58.2726 102.987 57.5183 102.221C58.9417 100.825 59.7711 98.8635 59.7593 96.868C59.7582 94.0674 59.7589 91.2668 59.7595 88.4662C59.7607 83.4879 59.7619 78.5097 59.7534 73.5314ZM70.9394 78.0678L70.9453 96.4342L76.5744 93.2595L76.5729 78.0678H70.9394ZM107.365 66.276C103.162 70.8007 97.0289 73.2078 90.9293 73.5431C91.5072 73.8313 92.019 74.2431 92.4292 74.7416C93.1512 75.6253 93.2983 76.8061 93.3071 77.909C93.3065 79.2734 93.3067 80.6379 93.3068 82.0023C93.3071 83.82 93.3073 85.6377 93.3056 87.4554C93.2998 89.6082 92.5101 91.7831 90.9587 93.3036C92.0484 94.2682 92.813 95.5872 93.1086 97.0107C93.3464 98.0807 93.3243 106.494 93.3106 111.695L93.3106 111.708C93.3082 112.613 93.3061 113.42 93.3056 114.074C93.2762 114.917 93.1806 115.779 92.8542 116.564C92.488 117.53 91.7396 118.289 90.8955 118.858C96.2628 118.861 101.629 118.861 106.996 118.858C106.412 118.42 105.869 117.912 105.478 117.293C104.74 116.17 104.55 114.796 104.542 113.479C104.542 109.757 104.545 102.31 104.545 102.31L115.598 122.484L131.84 128.644L132.034 128.885L131.975 128.55L113.565 97.3533C113.565 97.3533 118.691 94.5961 121.258 93.2242C121.258 91.8199 121.257 90.4155 121.257 89.0112V89.0109V89.0106C121.255 83.8518 121.253 78.6926 121.261 73.5343C115.97 72.827 110.956 70.2301 107.365 66.276ZM104.49 96.4342L104.481 78.0016L110.057 77.9943L110.059 93.2168L104.49 96.4342ZM126.852 73.5652C132.287 72.9755 137.284 70.0963 141.008 66.1671C144.639 70.0345 154.81 73.5416 154.81 73.5416C154.81 73.5416 154.616 86.8569 155.396 89.3053C155.847 90.8331 156.793 92.183 158 93.2109C156.303 94.9049 155.175 97.1607 154.894 99.5458C154.772 100.632 154.79 107.847 154.801 112.437L154.801 112.466C154.804 113.397 154.806 114.219 154.806 114.858C149.451 115.617 144.424 118.364 140.858 122.425C136.572 117.654 131.818 115.609 126.854 114.848C126.852 114.134 126.854 113.42 126.856 112.707V112.706C126.861 111.202 126.866 109.699 126.831 108.195C126.805 106.587 126.476 104.91 125.493 103.598C125.143 103.106 124.694 102.7 124.249 102.299L124.249 102.299L124.136 102.197C125.793 100.947 126.69 98.912 126.792 96.8695C126.91 94.3348 126.874 81.6809 126.857 75.4895V75.4873C126.855 74.7437 126.853 74.0934 126.852 73.5652ZM138.041 77.9972L138.038 110.335L143.645 110.341L143.643 77.9943L138.041 77.9972ZM37.3946 73.5225C37.3946 73.5225 27.7982 73.5225 23 73.5196C24.3602 74.3886 25.3778 75.7577 25.8189 77.3105C26.3954 79.1677 26.4159 96.3519 25.5763 98.59C25.0822 99.9869 24.1426 101.168 23.1176 102.216C24.097 103.203 24.9925 104.313 25.5131 105.616C26.1733 107.172 26.2865 122.516 25.866 124.188C25.4631 125.888 24.5175 127.531 23 128.457C27.8041 128.475 37.4137 128.464 37.4137 128.464L37.4329 102.246L42.9722 99.1149L42.9531 111.726L42.981 118.856C42.981 118.856 52.0437 118.865 56.5757 118.853C55.8581 118.355 55.167 117.762 54.7744 116.965C54.2288 115.895 54.1553 114.664 54.167 113.483C54.1687 111.49 54.1678 109.496 54.1669 107.503C54.1654 104.347 54.1639 101.19 54.1729 98.0341C54.1876 96.1504 55.2258 94.4667 56.5669 93.2139C55.9257 92.5727 55.3273 91.8698 54.9317 91.0478C54.37 89.892 54.1597 88.595 54.167 87.3187C54.1687 86.1216 54.1678 84.9246 54.1669 83.7275C54.1654 81.8321 54.1639 79.9367 54.1729 78.0413C54.2082 76.265 55.0626 74.5239 56.5478 73.5211C52.0172 73.524 42.9575 73.5255 42.9575 73.5255L42.959 93.2227L37.3873 96.421L37.3946 73.5225Z" fill="white"/>
<path d="M55.7081 10.0268L55.7016 8.52677L55.0749 11.3866L55.7081 10.0268ZM69.1455 10.0126L69.1447 11.5126L69.1455 10.0126ZM58.2873 11.9884L57.0953 12.899L57.107 12.9143L57.1191 12.9293L58.2873 11.9884ZM59.8578 16.8792L58.358 16.8577L58.3578 16.8687L58.3578 16.8798L59.8578 16.8792ZM59.8585 18.7777L61.3585 18.7777L61.3585 18.7772L59.8585 18.7777ZM59.8585 18.7781L58.3585 18.7781L58.3585 18.7788L59.8585 18.7781ZM59.2343 58.2588L57.8199 57.7594L57.8112 57.784L57.8034 57.8088L59.2343 58.2588ZM55.9272 62.2468L55.2786 60.8943L55.9313 63.7468L55.9272 62.2468ZM73.4187 62.2395L73.4175 63.7395L73.787 63.7397L74.1143 63.5684L73.4187 62.2395ZM87.8074 54.7076L88.5031 56.0365L89.3116 55.6133L89.3074 54.7007L87.8074 54.7076ZM87.9236 39.316L86.4352 39.1293L86.4332 39.1453L86.4316 39.1612L87.9236 39.316ZM90.3499 34.4354L91.389 35.5172L92.4521 34.4961L91.4496 33.4154L90.3499 34.4354ZM88.5971 32.1179L87.2554 32.7888L87.2563 32.7906L88.5971 32.1179ZM87.8501 28.6373L89.35 28.6262L89.3499 28.6162L89.3497 28.6061L87.8501 28.6373ZM87.8398 24.577L89.3398 24.5807V24.577H87.8398ZM87.8398 24.5742L86.3398 24.5706V24.5742H87.8398ZM87.6736 15.3985L89.1547 15.161L89.1497 15.1299L89.1434 15.0991L87.6736 15.3985ZM85.0444 11.1061L84.1446 12.3063L84.1508 12.311L84.1571 12.3155L85.0444 11.1061ZM81.3387 10.0032L81.3439 11.5032L81.3648 11.5032L81.3858 11.5025L81.3387 10.0032ZM71.0409 17.2454L71.0405 15.7454L69.5411 15.7458L69.5409 17.2452L71.0409 17.2454ZM71.0365 54.1076L69.5365 54.1075L69.5362 56.5694L71.7242 55.4407L71.0365 54.1076ZM76.6846 17.2439L78.1846 17.2437L78.1844 15.7435L76.6842 15.7439L76.6846 17.2439ZM76.689 51.1917L77.3767 52.5247L78.1892 52.1056L78.189 51.1915L76.689 51.1917ZM93.3511 14.7676L93.352 13.2676L91.8511 13.2667V14.7676H93.3511ZM108.46 14.7676L109.286 16.0197L113.467 13.2618L108.459 13.2676L108.46 14.7676ZM93.3511 61.3307L92.356 62.4531L94.8511 64.6654V61.3307H93.3511ZM89.991 58.3515L90.9862 57.2291L90.1928 56.5257L89.265 57.0389L89.991 58.3515ZM79.6461 64.0732L78.9201 62.7605L76.8553 63.9026L78.7657 65.2876L79.6461 64.0732ZM85.0399 67.3553L85.6205 65.9722L85.6116 65.9685L85.6027 65.9649L85.0399 67.3553ZM92.2379 68.4214L92.3248 69.9189L92.3572 69.917L92.3895 69.9137L92.2379 68.4214ZM100.23 65.026L101.186 66.182L101.186 66.1817L100.23 65.026ZM104.259 58.7912L102.814 58.3894L102.806 58.4193L102.799 58.4495L104.259 58.7912ZM104.547 55.5391L103.047 55.5435L103.047 55.5435L104.547 55.5391ZM104.547 54.9576L106.047 54.9662L106.047 54.9569L104.547 54.9576ZM104.554 39.9146L106.054 39.9159L106.054 39.9159L104.554 39.9146ZM104.561 24.0788L103.061 24.044L103.061 24.0618L103.061 24.0796L104.561 24.0788ZM104.564 23.934L106.064 23.9688L106.064 23.9686L104.564 23.934ZM105.081 19.3805L106.517 19.8147L106.522 19.798L106.527 19.7811L105.081 19.3805ZM73.701 66.2657L74.7992 65.2439L73.6968 64.059L72.599 65.2481L73.701 66.2657ZM59.7534 73.5314L59.5434 72.0461L58.2512 72.2288L58.2534 73.5339L59.7534 73.5314ZM80.5873 71.433L81.255 70.0897L81.2475 70.086L81.2401 70.0824L80.5873 71.433ZM87.7133 73.5416L89.2133 73.545L89.2163 72.2292L87.912 72.0549L87.7133 73.5416ZM87.7104 93.2227L88.4202 94.5441L89.2112 94.1192L89.2104 93.2213L87.7104 93.2227ZM70.9556 102.216L70.2471 100.894L69.4595 101.316L69.4556 102.21L70.9556 102.216ZM70.9483 110.335L69.4483 110.336L69.4495 111.834L70.9479 111.835L70.9483 110.335ZM76.5876 110.336L76.5872 111.836L78.086 111.837L78.0876 110.338L76.5876 110.336ZM76.5832 104.197L75.8718 102.876L75.0793 103.303L75.0832 104.203L76.5832 104.197ZM81.5907 101.517L80.8848 100.194L80.8848 100.194L81.5907 101.517ZM81.5933 101.516L80.8891 100.191L80.8874 100.192L81.5933 101.516ZM81.5962 101.514L82.3004 102.839L82.3021 102.838L81.5962 101.514ZM87.7074 98.2385L89.2074 98.2393L89.2088 95.7201L86.9934 96.9194L87.7074 98.2385ZM87.7074 114.839L87.9188 116.324L89.2085 116.14L89.2074 114.838L87.7074 114.839ZM73.7054 122.424L72.5766 123.411L73.7065 124.703L74.8352 123.41L73.7054 122.424ZM59.7549 114.845L58.2549 114.838L58.2488 116.142L59.5396 116.329L59.7549 114.845ZM59.7597 110.533L61.2597 110.532L59.7597 110.533ZM59.7608 107.3L58.2608 107.289L58.2608 107.296L59.7608 107.3ZM59.4079 104.835L57.9985 105.349L58.0036 105.363L58.0091 105.377L59.4079 104.835ZM57.5183 102.221L56.4682 101.149L55.3947 102.202L56.4494 103.273L57.5183 102.221ZM59.7593 96.868L58.2593 96.8686L58.2593 96.8769L59.7593 96.868ZM59.7595 88.4662L58.2595 88.4659L58.2595 88.4659L59.7595 88.4662ZM70.9453 96.4342L69.4453 96.4347L69.4461 99.0019L71.6822 97.7408L70.9453 96.4342ZM70.9394 78.0678V76.5678H69.439L69.4394 78.0683L70.9394 78.0678ZM76.5744 93.2595L77.3112 94.566L78.0744 94.1355L78.0744 93.2593L76.5744 93.2595ZM76.5729 78.0678L78.0729 78.0677L78.0727 76.5678H76.5729V78.0678ZM90.9293 73.5431L90.847 72.0454L85.1888 72.3564L90.2599 74.8854L90.9293 73.5431ZM107.365 66.276L108.475 65.2675L107.377 64.0585L106.266 65.2551L107.365 66.276ZM92.4292 74.7416L93.5909 73.7925L93.5874 73.7883L92.4292 74.7416ZM93.3071 77.909L94.8072 77.9097L94.8071 77.897L93.3071 77.909ZM93.3068 82.0023L94.8068 82.0021L94.8068 82.0021L93.3068 82.0023ZM93.3056 87.4554L94.8056 87.4595L94.8056 87.4568L93.3056 87.4554ZM90.9587 93.3036L89.9088 92.2323L88.7588 93.3594L89.9644 94.4267L90.9587 93.3036ZM93.1086 97.0107L91.6399 97.3156L91.642 97.3259L91.6443 97.3361L93.1086 97.0107ZM93.3106 111.695L91.8106 111.691L91.8106 111.693L93.3106 111.695ZM93.3106 111.708L94.8106 111.712L94.8106 111.711L93.3106 111.708ZM93.3056 114.074L94.8047 114.127L94.8056 114.101L94.8056 114.075L93.3056 114.074ZM92.8542 116.564L91.4691 115.988L91.46 116.01L91.4515 116.032L92.8542 116.564ZM90.8955 118.858L90.057 117.614L85.9914 120.355L90.8947 120.358L90.8955 118.858ZM106.996 118.858L106.997 120.358L111.49 120.355L107.896 117.658L106.996 118.858ZM105.478 117.293L106.746 116.492L106.739 116.481L106.732 116.469L105.478 117.293ZM104.542 113.479L103.042 113.479L103.042 113.489L104.542 113.479ZM104.545 102.31L105.86 101.59L103.045 102.31L104.545 102.31ZM115.598 122.484L114.283 123.205L114.549 123.69L115.066 123.886L115.598 122.484ZM131.84 128.644L133.008 127.703L132.753 127.386L132.372 127.241L131.84 128.644ZM132.034 128.885L130.865 129.826L133.511 128.626L132.034 128.885ZM131.975 128.55L133.453 128.291L133.405 128.022L133.267 127.787L131.975 128.55ZM113.565 97.3533L112.854 96.0323L111.48 96.7716L112.273 98.1157L113.565 97.3533ZM121.258 93.2242L121.965 94.5471L122.758 94.1232L122.758 93.2238L121.258 93.2242ZM121.257 89.0112L119.757 89.0112L119.757 89.0117L121.257 89.0112ZM121.257 89.0106L122.757 89.0106L122.757 89.01L121.257 89.0106ZM121.261 73.5343L122.761 73.5366L122.763 72.2217L121.46 72.0475L121.261 73.5343ZM104.481 78.0016L104.479 76.5016L102.981 76.5036L102.981 78.0024L104.481 78.0016ZM104.49 96.4342L102.99 96.435L102.991 99.0325L105.241 97.733L104.49 96.4342ZM110.057 77.9943L111.557 77.9941L111.557 76.4923L110.055 76.4943L110.057 77.9943ZM110.059 93.2168L110.809 94.5156L111.559 94.0825L111.559 93.2167L110.059 93.2168ZM141.008 66.1671L142.102 65.1405L141.014 63.9812L139.92 65.1351L141.008 66.1671ZM126.852 73.5652L126.69 72.0739L125.349 72.2195L125.352 73.5687L126.852 73.5652ZM154.81 73.5416L156.31 73.5635L156.326 72.4776L155.299 72.1236L154.81 73.5416ZM155.396 89.3053L156.834 88.8802L156.83 88.8652L156.825 88.8503L155.396 89.3053ZM158 93.2109L159.06 94.2725L160.211 93.1233L158.972 92.0688L158 93.2109ZM154.894 99.5458L153.405 99.3704L153.404 99.3783L154.894 99.5458ZM154.801 112.437L153.301 112.441L153.301 112.442L154.801 112.437ZM154.801 112.466L156.301 112.462L156.301 112.461L154.801 112.466ZM154.806 114.858L155.016 116.343L156.307 116.16L156.306 114.857L154.806 114.858ZM140.858 122.425L139.743 123.428L140.871 124.684L141.986 123.415L140.858 122.425ZM126.854 114.848L125.354 114.852L125.357 116.136L126.626 116.33L126.854 114.848ZM126.856 112.707L128.356 112.712V112.707H126.856ZM126.856 112.706L125.356 112.701V112.706H126.856ZM126.831 108.195L125.332 108.22L125.332 108.23L126.831 108.195ZM125.493 103.598L124.271 104.467L124.281 104.483L124.293 104.498L125.493 103.598ZM124.249 102.299L123.188 103.36L123.215 103.387L123.244 103.412L124.249 102.299ZM124.249 102.299L125.309 101.238L125.282 101.211L125.254 101.186L124.249 102.299ZM124.136 102.197L123.233 101L121.783 102.093L123.131 103.31L124.136 102.197ZM126.792 96.8695L128.29 96.9439L128.29 96.9393L126.792 96.8695ZM126.857 75.4895L125.357 75.4895L125.357 75.4937L126.857 75.4895ZM126.857 75.4873L128.357 75.4873L128.357 75.4831L126.857 75.4873ZM138.038 110.335L136.538 110.335L136.538 111.833L138.036 111.835L138.038 110.335ZM138.041 77.9972L138.04 76.4972L136.541 76.498L136.541 77.9971L138.041 77.9972ZM143.645 110.341L143.643 111.841L145.145 111.842L145.145 110.341L143.645 110.341ZM143.643 77.9943L145.143 77.9942L145.143 76.4935L143.643 76.4943L143.643 77.9943ZM23 73.5196L23.0009 72.0196L17.8614 72.0164L22.1924 74.7836L23 73.5196ZM37.3946 73.5225L38.8946 73.523L38.8951 72.0225H37.3946V73.5225ZM25.8189 77.3105L24.376 77.7204L24.381 77.7378L24.3863 77.7551L25.8189 77.3105ZM25.5763 98.59L24.1719 98.0631L24.1669 98.0764L24.1621 98.0898L25.5763 98.59ZM23.1176 102.216L22.045 101.168L21.0122 102.224L22.053 103.273L23.1176 102.216ZM25.5131 105.616L24.1201 106.173L24.126 106.187L24.1323 106.202L25.5131 105.616ZM25.866 124.188L24.4113 123.822L24.4088 123.832L24.4064 123.842L25.866 124.188ZM23 128.457L22.2184 127.177L17.6959 129.938L22.9945 129.957L23 128.457ZM37.4137 128.464L37.4154 129.964L38.9127 129.963L38.9137 128.466L37.4137 128.464ZM37.4329 102.246L36.6948 100.94L35.9335 101.37L35.9329 102.245L37.4329 102.246ZM42.9722 99.1149L44.4722 99.1172L44.4761 96.542L42.2342 97.8091L42.9722 99.1149ZM42.9531 111.726L41.4531 111.724L41.4531 111.732L42.9531 111.726ZM42.981 118.856L41.481 118.862L41.4869 120.355L42.9796 120.356L42.981 118.856ZM56.5757 118.853L56.5796 120.353L61.3463 120.341L57.4315 117.621L56.5757 118.853ZM54.7744 116.965L56.1199 116.302L56.1154 116.293L56.1108 116.284L54.7744 116.965ZM54.167 113.483L55.667 113.498L55.667 113.484L54.167 113.483ZM54.1669 107.503L52.6669 107.504L52.6669 107.504L54.1669 107.503ZM54.1729 98.0341L52.673 98.0224L52.6729 98.0298L54.1729 98.0341ZM56.5669 93.2139L57.5909 94.31L58.7249 93.2505L57.6275 92.1532L56.5669 93.2139ZM54.9317 91.0478L56.2833 90.3974L56.2808 90.3922L54.9317 91.0478ZM54.167 87.3187L55.667 87.3273L55.667 87.3208L54.167 87.3187ZM54.1669 83.7275L52.6669 83.7287L52.6669 83.7287L54.1669 83.7275ZM54.1729 78.0413L52.6732 78.0115L52.673 78.0229L52.6729 78.0342L54.1729 78.0413ZM56.5478 73.5211L57.3872 74.7642L61.4543 72.0179L56.5468 72.0211L56.5478 73.5211ZM42.9575 73.5255L42.9573 72.0255L41.4574 72.0257L41.4575 73.5256L42.9575 73.5255ZM42.959 93.2227L43.7057 94.5236L44.459 94.0912L44.459 93.2226L42.959 93.2227ZM37.3873 96.421L35.8873 96.4205L35.8864 99.0121L38.134 97.7219L37.3873 96.421ZM55.7145 11.5267C60.1894 11.5075 64.6649 11.51 69.1447 11.5126L69.1464 8.51259C64.6678 8.51004 60.185 8.50748 55.7016 8.52677L55.7145 11.5267ZM59.4793 11.0778C58.6194 9.95219 57.4644 9.18995 56.3413 8.66697L55.0749 11.3866C55.9222 11.7812 56.6229 12.2806 57.0953 12.899L59.4793 11.0778ZM61.3577 16.9008C61.3867 14.8822 60.8169 12.7378 59.4556 11.0475L57.1191 12.9293C57.9606 13.9741 58.379 15.3971 58.358 16.8577L61.3577 16.9008ZM61.3585 18.7772L61.3578 16.8787L58.3578 16.8798L58.3585 18.7783L61.3585 18.7772ZM61.3585 18.778V18.7777H58.3585V18.778H61.3585ZM61.3585 18.778V18.778H58.3585V18.778H61.3585ZM61.3585 18.7781V18.778H58.3585V18.7781H61.3585ZM61.3585 18.7781V18.7781H58.3585V18.7781H61.3585ZM60.6487 58.7583C60.7497 58.4725 60.8013 58.1181 60.8356 57.8383C60.8753 57.515 60.9101 57.1176 60.9414 56.6638C61.0042 55.7537 61.057 54.5563 61.1016 53.1498C61.1911 50.3335 61.2497 46.626 61.2881 42.5905C61.3649 34.5169 61.3611 25.092 61.3585 18.7775L58.3585 18.7788C58.3611 25.0961 58.3649 34.5059 58.2883 42.5619C58.2499 46.5912 58.1915 50.2722 58.1032 53.0546C58.0589 54.4475 58.0076 55.602 57.9485 56.4572C57.9189 56.886 57.8884 57.2246 57.8579 57.4732C57.8221 57.7654 57.7989 57.8188 57.8199 57.7594L60.6487 58.7583ZM56.5758 63.5993C58.6319 62.6133 60.0308 60.7261 60.6652 58.7089L57.8034 57.8088C57.3732 59.1767 56.4605 60.3275 55.2786 60.8943L56.5758 63.5993ZM73.4187 62.2395C73.4198 60.7395 73.4198 60.7395 73.4197 60.7395C73.4196 60.7395 73.4194 60.7395 73.4193 60.7395C73.4189 60.7395 73.4184 60.7395 73.4177 60.7395C73.4162 60.7395 73.4141 60.7395 73.4113 60.7394C73.4057 60.7394 73.3973 60.7394 73.3861 60.7394C73.3639 60.7394 73.3308 60.7394 73.2873 60.7394C73.2005 60.7393 73.0723 60.7392 72.9072 60.7391C72.5769 60.7389 72.0985 60.7386 71.5063 60.7383C70.3218 60.7378 68.6817 60.7372 66.8594 60.7371C63.2154 60.7369 58.8406 60.7387 55.923 60.7468L55.9313 63.7468C58.8442 63.7387 63.2152 63.7369 66.8593 63.7371C68.681 63.7372 70.3206 63.7378 71.5048 63.7383C72.0969 63.7386 72.5751 63.7389 72.9053 63.7391C73.0704 63.7392 73.1984 63.7393 73.2852 63.7394C73.3286 63.7394 73.3617 63.7394 73.3839 63.7394C73.3951 63.7394 73.4035 63.7394 73.4091 63.7394C73.4119 63.7395 73.414 63.7395 73.4154 63.7395C73.4161 63.7395 73.4167 63.7395 73.417 63.7395C73.4172 63.7395 73.4173 63.7395 73.4174 63.7395C73.4175 63.7395 73.4175 63.7395 73.4187 62.2395ZM87.1118 53.3787L72.723 60.9105L74.1143 63.5684L88.5031 56.0365L87.1118 53.3787ZM86.4316 39.1612C86.3316 40.1246 86.3047 44.0864 86.2982 47.6575C86.2949 49.4762 86.2972 51.2403 86.3003 52.5494C86.3019 53.2041 86.3037 53.7452 86.3051 54.1227C86.3058 54.3114 86.3063 54.4593 86.3068 54.56C86.307 54.6104 86.3071 54.649 86.3073 54.675C86.3073 54.688 86.3074 54.6978 86.3074 54.7045C86.3074 54.7078 86.3074 54.7103 86.3074 54.712C86.3074 54.7128 86.3074 54.7135 86.3074 54.7139C86.3074 54.7141 86.3074 54.7143 86.3074 54.7144C86.3074 54.7145 86.3074 54.7145 87.8074 54.7076C89.3074 54.7007 89.3074 54.7006 89.3074 54.7005C89.3074 54.7004 89.3074 54.7003 89.3074 54.7001C89.3074 54.6997 89.3074 54.6991 89.3074 54.6983C89.3074 54.6966 89.3074 54.6942 89.3074 54.6909C89.3073 54.6844 89.3073 54.6746 89.3072 54.6617C89.3071 54.636 89.3069 54.5976 89.3067 54.5475C89.3063 54.4472 89.3057 54.2999 89.305 54.1117C89.3037 53.7353 89.3019 53.1955 89.3003 52.5423C89.2972 51.2357 89.2949 49.4761 89.2982 47.663C89.305 43.9707 89.3361 40.2366 89.4156 39.4708L86.4316 39.1612ZM89.3108 33.3536C87.7131 34.8883 86.7073 36.9595 86.4352 39.1293L89.4119 39.5026C89.6016 37.9904 90.3045 36.5589 91.389 35.5172L89.3108 33.3536ZM87.2563 32.7906C87.8019 33.878 88.5984 34.7528 89.2501 35.4555L91.4496 33.4154C90.7839 32.6976 90.2687 32.1048 89.9378 31.4453L87.2563 32.7906ZM86.3501 28.6484C86.36 29.9916 86.5856 31.4492 87.2554 32.7888L89.9387 31.4471C89.535 30.6398 89.3577 29.6711 89.35 28.6262L86.3501 28.6484ZM86.3398 24.5734C86.3357 26.258 86.332 27.781 86.3504 28.6684L89.3497 28.6061C89.3322 27.7629 89.3357 26.285 89.3398 24.5807L86.3398 24.5734ZM86.3398 24.5763V24.577H89.3398V24.5763H86.3398ZM86.3398 24.5756V24.5763H89.3398V24.5756H86.3398ZM86.3398 24.5749V24.5756H89.3398V24.5749H86.3398ZM86.3398 24.5742V24.5749H89.3398V24.5742H86.3398ZM86.1925 15.6359C86.2636 16.079 86.3097 17.347 86.3296 19.0959C86.3489 20.7856 86.3441 22.7792 86.3398 24.5706L89.3398 24.5778C89.3441 22.7919 89.349 20.7762 89.3294 19.0617C89.3105 17.4064 89.2692 15.8751 89.1547 15.161L86.1925 15.6359ZM84.1571 12.3155C85.198 13.0792 85.9237 14.3229 86.2038 15.6978L89.1434 15.0991C88.7412 13.1242 87.6729 11.1741 85.9316 9.89665L84.1571 12.3155ZM81.3858 11.5025C82.4122 11.4703 83.401 11.7488 84.1446 12.3063L85.9441 9.9059C84.5732 8.87821 82.8886 8.45384 81.2917 8.50397L81.3858 11.5025ZM69.1447 11.5126C73.2086 11.5149 77.276 11.5172 81.3439 11.5032L81.3336 8.50324C77.2727 8.51722 73.2113 8.51491 69.1464 8.51259L69.1447 11.5126ZM69.5409 17.2452L69.5365 54.1075L72.5365 54.1078L72.5409 17.2456L69.5409 17.2452ZM76.6842 15.7439L71.0405 15.7454L71.0413 18.7454L76.685 18.7439L76.6842 15.7439ZM78.189 51.1915L78.1846 17.2437L75.1846 17.2441L75.189 51.1919L78.189 51.1915ZM71.7242 55.4407L77.3767 52.5247L76.0013 49.8586L70.3488 52.7746L71.7242 55.4407ZM93.3511 14.7676C93.3502 16.2676 93.3503 16.2676 93.3503 16.2676C93.3504 16.2676 93.3505 16.2676 93.3507 16.2676C93.351 16.2676 93.3515 16.2676 93.3521 16.2676C93.3533 16.2676 93.3551 16.2676 93.3576 16.2676C93.3624 16.2676 93.3697 16.2676 93.3793 16.2676C93.3985 16.2676 93.4271 16.2677 93.4646 16.2677C93.5396 16.2677 93.6503 16.2678 93.793 16.2679C94.0783 16.268 94.4915 16.2682 95.003 16.2684C96.0261 16.2689 97.4427 16.2695 99.0167 16.2698C102.164 16.2706 105.943 16.2706 108.462 16.2676L108.459 13.2676C105.942 13.2706 102.165 13.2706 99.0174 13.2698C97.4437 13.2695 96.0273 13.2689 95.0044 13.2684C94.4929 13.2682 94.0798 13.268 93.7945 13.2679C93.6519 13.2678 93.5413 13.2677 93.4663 13.2677C93.4288 13.2677 93.4002 13.2676 93.381 13.2676C93.3714 13.2676 93.3641 13.2676 93.3593 13.2676C93.3569 13.2676 93.355 13.2676 93.3538 13.2676C93.3532 13.2676 93.3527 13.2676 93.3524 13.2676C93.3523 13.2676 93.3522 13.2676 93.3521 13.2676C93.352 13.2676 93.352 13.2676 93.3511 14.7676ZM94.8511 61.3307V14.7676H91.8511V61.3307H94.8511ZM88.9959 59.4738L92.356 62.4531L94.3462 60.2083L90.9862 57.2291L88.9959 59.4738ZM80.3721 65.3858L90.717 59.6641L89.265 57.0389L78.9201 62.7605L80.3721 65.3858ZM85.6027 65.9649C84.773 65.629 83.535 64.8845 82.4282 64.161C81.8921 63.8105 81.4145 63.4833 81.0709 63.2438C80.8993 63.1242 80.7618 63.0269 80.6678 62.9599C80.6208 62.9264 80.5847 62.9006 80.5608 62.8834C80.5488 62.8748 80.5399 62.8683 80.5341 62.8642C80.5312 62.8621 80.5292 62.8606 80.5279 62.8597C80.5273 62.8592 80.5268 62.8589 80.5266 62.8587C80.5265 62.8587 80.5264 62.8586 80.5264 62.8586C80.5264 62.8586 80.5264 62.8586 80.5264 62.8586C80.5265 62.8587 80.5265 62.8587 79.6461 64.0732C78.7657 65.2876 78.7658 65.2877 78.7659 65.2877C78.766 65.2878 78.7661 65.2879 78.7662 65.2879C78.7664 65.2881 78.7666 65.2883 78.7669 65.2885C78.7675 65.2889 78.7684 65.2895 78.7694 65.2902C78.7714 65.2917 78.7743 65.2938 78.778 65.2965C78.7853 65.3018 78.7959 65.3094 78.8095 65.3192C78.8368 65.3388 78.8764 65.3672 78.9271 65.4033C79.0285 65.4755 79.1744 65.5788 79.3553 65.7048C79.7165 65.9566 80.2195 66.3012 80.7866 66.6719C81.8863 67.3909 83.3451 68.2875 84.4771 68.7457L85.6027 65.9649ZM92.1511 66.9239C89.8692 67.0562 87.6129 66.8085 85.6205 65.9722L84.4593 68.7384C86.9931 69.8019 89.7364 70.0689 92.3248 69.9189L92.1511 66.9239ZM99.2742 63.8701C97.229 65.5613 94.6982 66.6638 92.0864 66.9291L92.3895 69.9137C95.6273 69.5849 98.7109 68.2287 101.186 66.182L99.2742 63.8701ZM102.799 58.4495C102.31 60.5384 101.005 62.4377 99.2738 63.8704L101.186 66.1817C103.325 64.4117 105.055 61.973 105.72 59.1328L102.799 58.4495ZM103.047 55.5435C103.051 56.6713 103.044 57.562 102.814 58.3894L105.704 59.1929C106.064 57.9005 106.051 56.5907 106.047 55.5347L103.047 55.5435ZM103.047 54.9489C103.046 55.1499 103.047 55.3504 103.047 55.5435L106.047 55.5348C106.047 55.3395 106.046 55.152 106.047 54.9662L103.047 54.9489ZM103.054 39.9132C103.05 44.9273 103.045 49.9425 103.047 54.9582L106.047 54.9569C106.045 49.9435 106.05 44.9303 106.054 39.9159L103.054 39.9132ZM103.061 24.0796C103.064 29.3572 103.059 34.6346 103.054 39.9132L106.054 39.9159C106.059 34.6376 106.064 29.358 106.061 24.0779L103.061 24.0796ZM103.064 23.8992L103.061 24.044L106.06 24.1135L106.064 23.9688L103.064 23.8992ZM103.645 18.9463C103.13 20.6499 103.099 22.4072 103.064 23.8994L106.064 23.9686C106.1 22.4045 106.14 21.0619 106.517 19.8147L103.645 18.9463ZM107.634 13.5156C105.711 14.7843 104.257 16.7368 103.636 18.98L106.527 19.7811C106.949 18.2569 107.951 16.9008 109.286 16.0197L107.634 13.5156ZM72.599 65.2481C69.2085 68.9201 64.5031 71.3449 59.5434 72.0461L59.9634 75.0166C65.5913 74.2209 70.9323 71.4754 74.8031 67.2832L72.599 65.2481ZM81.2401 70.0824C78.8274 68.9163 76.654 67.2375 74.7992 65.2439L72.6028 67.2874C74.6772 69.5171 77.1446 71.435 79.9346 72.7835L81.2401 70.0824ZM87.912 72.0549C85.5812 71.7433 83.3139 71.1131 81.255 70.0897L79.9197 72.7762C82.3222 73.9703 84.9164 74.6812 87.5146 75.0284L87.912 72.0549ZM87.7104 93.2227C89.2104 93.2213 89.2104 93.2213 89.2104 93.2212C89.2104 93.2211 89.2104 93.2209 89.2104 93.2207C89.2104 93.2203 89.2104 93.2198 89.2104 93.219C89.2104 93.2174 89.2104 93.215 89.2104 93.2118C89.2104 93.2055 89.2104 93.196 89.2103 93.1835C89.2103 93.1585 89.2103 93.1213 89.2103 93.0725C89.2102 92.9748 89.21 92.8307 89.2099 92.6449C89.2096 92.2734 89.2092 91.7353 89.2088 91.069C89.2079 89.7366 89.2069 87.8916 89.2063 85.8417C89.2052 81.7414 89.206 76.8228 89.2133 73.545L86.2133 73.5383C86.206 76.8203 86.2052 81.7423 86.2063 85.8425C86.2069 87.8929 86.2079 89.7382 86.2088 91.071C86.2092 91.7374 86.2096 92.2756 86.2099 92.6473C86.2101 92.8331 86.2102 92.9773 86.2103 93.075C86.2103 93.1239 86.2103 93.1611 86.2103 93.1862C86.2104 93.1987 86.2104 93.2081 86.2104 93.2145C86.2104 93.2176 86.2104 93.22 86.2104 93.2216C86.2104 93.2224 86.2104 93.223 86.2104 93.2234C86.2104 93.2236 86.2104 93.2238 86.2104 93.2239C86.2104 93.224 86.2104 93.224 87.7104 93.2227ZM71.6642 103.538C74.4579 102.041 78.6471 99.7924 82.1375 97.9183C83.8827 96.9812 85.4534 96.1376 86.5878 95.5284C87.155 95.2237 87.6131 94.9777 87.9294 94.8078C88.0875 94.7228 88.2103 94.6569 88.2934 94.6122C88.335 94.5899 88.3667 94.5728 88.388 94.5614C88.3987 94.5557 88.4067 94.5513 88.4121 94.5485C88.4148 94.547 88.4168 94.5459 88.4182 94.5452C88.4189 94.5448 88.4194 94.5445 88.4197 94.5444C88.4199 94.5443 88.42 94.5442 88.4201 94.5442C88.4202 94.5441 88.4202 94.5441 87.7104 93.2227C87.0005 91.9013 87.0005 91.9013 87.0004 91.9013C87.0003 91.9014 87.0002 91.9015 87 91.9016C86.9997 91.9017 86.9992 91.902 86.9985 91.9024C86.9971 91.9031 86.9951 91.9042 86.9924 91.9056C86.987 91.9085 86.979 91.9129 86.9683 91.9186C86.947 91.93 86.9153 91.947 86.8738 91.9694C86.7906 92.014 86.6679 92.08 86.5098 92.1649C86.1935 92.3348 85.7354 92.5808 85.1683 92.8854C84.034 93.4947 82.4634 94.3381 80.7183 95.2752C77.2279 97.1493 73.0397 99.3975 70.2471 100.894L71.6642 103.538ZM70.9483 110.335C72.4483 110.334 72.4483 110.334 72.4483 110.334C72.4483 110.333 72.4483 110.333 72.4483 110.333C72.4483 110.333 72.4483 110.333 72.4483 110.333C72.4483 110.332 72.4483 110.331 72.4483 110.33C72.4483 110.327 72.4482 110.323 72.4482 110.318C72.4482 110.308 72.4482 110.292 72.4482 110.272C72.4482 110.232 72.4481 110.173 72.4481 110.096C72.448 109.943 72.4479 109.721 72.4478 109.446C72.4475 108.897 72.4473 108.136 72.4475 107.29C72.4479 105.599 72.4497 103.572 72.4556 102.223L69.4556 102.21C69.4497 103.566 69.4479 105.598 69.4475 107.29C69.4473 108.136 69.4475 108.897 69.4478 109.447C69.4479 109.722 69.448 109.944 69.4481 110.098C69.4481 110.175 69.4482 110.234 69.4482 110.274C69.4482 110.295 69.4482 110.31 69.4482 110.32C69.4482 110.326 69.4483 110.329 69.4483 110.332C69.4483 110.333 69.4483 110.334 69.4483 110.335C69.4483 110.335 69.4483 110.336 69.4483 110.336C69.4483 110.336 69.4483 110.336 69.4483 110.336C69.4483 110.336 69.4483 110.336 70.9483 110.335ZM76.588 108.836L70.9486 108.835L70.9479 111.835L76.5872 111.836L76.588 108.836ZM75.0832 104.203C75.0876 105.223 75.0887 106.754 75.0887 108.034C75.0887 108.673 75.0884 109.248 75.0881 109.664C75.088 109.871 75.0879 110.039 75.0878 110.155C75.0877 110.213 75.0877 110.258 75.0876 110.288C75.0876 110.304 75.0876 110.315 75.0876 110.323C75.0876 110.327 75.0876 110.33 75.0876 110.332C75.0876 110.333 75.0876 110.333 75.0876 110.334C75.0876 110.334 75.0876 110.334 75.0876 110.334C75.0876 110.335 75.0876 110.335 75.0876 110.335C75.0876 110.335 75.0876 110.335 76.5876 110.336C78.0876 110.338 78.0876 110.338 78.0876 110.338C78.0876 110.338 78.0876 110.338 78.0876 110.338C78.0876 110.338 78.0876 110.337 78.0876 110.337C78.0876 110.337 78.0876 110.336 78.0876 110.335C78.0876 110.333 78.0876 110.33 78.0876 110.326C78.0876 110.318 78.0876 110.307 78.0876 110.291C78.0877 110.261 78.0877 110.216 78.0878 110.158C78.0879 110.042 78.088 109.874 78.0881 109.666C78.0884 109.25 78.0887 108.674 78.0887 108.034C78.0887 106.755 78.0876 105.217 78.0832 104.19L75.0832 104.203ZM80.8848 100.194C79.215 101.084 77.542 101.977 75.8718 102.876L77.2946 105.518C78.9584 104.621 80.626 103.732 82.2966 102.841L80.8848 100.194ZM80.8874 100.192L80.8848 100.194L82.2966 102.841L82.2992 102.839L80.8874 100.192ZM80.8919 100.19L80.8891 100.191L82.2975 102.84L82.3004 102.839L80.8919 100.19ZM86.9934 96.9194C84.9652 98.0173 82.9302 99.1027 80.8903 100.191L82.3021 102.838C84.3407 101.75 86.3839 100.661 88.4215 99.5576L86.9934 96.9194ZM89.2074 114.838C89.203 109.305 89.2045 103.773 89.2074 98.2393L86.2074 98.2377C86.2045 103.771 86.203 109.306 86.2074 114.84L89.2074 114.838ZM74.8352 123.41C78.1676 119.595 82.8995 117.038 87.9188 116.324L87.4961 113.354C81.7691 114.169 76.3839 117.077 72.5757 121.437L74.8352 123.41ZM59.5396 116.329C64.5407 117.054 69.2498 119.61 72.5766 123.411L74.8343 121.436C71.035 117.094 65.6772 114.188 59.9702 113.36L59.5396 116.329ZM58.2597 110.534C58.2607 111.972 58.2616 113.406 58.2549 114.838L61.2549 114.852C61.2616 113.41 61.2606 111.969 61.2597 110.532L58.2597 110.534ZM58.2608 107.296C58.2582 108.376 58.259 109.457 58.2597 110.534L61.2597 110.532C61.259 109.454 61.2582 108.378 61.2608 107.303L58.2608 107.296ZM58.0091 105.377C58.2074 105.889 58.2663 106.508 58.2608 107.289L61.2607 107.31C61.267 106.426 61.2141 105.346 60.8066 104.294L58.0091 105.377ZM56.4494 103.273C57.2164 104.052 57.7485 104.662 57.9985 105.349L60.8172 104.322C60.3172 102.949 59.3288 101.921 58.5871 101.168L56.4494 103.273ZM58.2593 96.8769C58.2687 98.4604 57.6059 100.034 56.4682 101.149L58.5684 103.292C60.2775 101.616 61.2735 99.2666 61.2593 96.8592L58.2593 96.8769ZM58.2595 88.4659C58.2589 91.2664 58.2582 94.0675 58.2593 96.8686L61.2593 96.8675C61.2582 94.0674 61.2589 91.2673 61.2595 88.4666L58.2595 88.4659ZM58.2534 73.5339C58.2619 78.5105 58.2607 83.4873 58.2595 88.4659L61.2595 88.4666C61.2607 83.4885 61.2619 78.5088 61.2534 73.5288L58.2534 73.5339ZM72.4453 96.4338L72.4394 78.0673L69.4394 78.0683L69.4453 96.4347L72.4453 96.4338ZM75.8375 91.9529L70.2084 95.1277L71.6822 97.7408L77.3112 94.566L75.8375 91.9529ZM75.0729 78.068L75.0744 93.2596L78.0744 93.2593L78.0729 78.0677L75.0729 78.068ZM70.9394 79.5678H76.5729V76.5678H70.9394V79.5678ZM91.0116 75.0409C97.4237 74.6884 103.95 72.157 108.464 67.2968L106.266 65.2551C102.375 69.4443 96.6341 71.7273 90.847 72.0454L91.0116 75.0409ZM93.5874 73.7883C93.0467 73.1314 92.3698 72.5853 91.5988 72.2008L90.2599 74.8854C90.6446 75.0773 90.9912 75.3547 91.271 75.6948L93.5874 73.7883ZM94.8071 77.897C94.7978 76.7355 94.6579 75.0986 93.5908 73.7925L91.2676 75.6906C91.6446 76.152 91.7988 76.8768 91.8072 77.921L94.8071 77.897ZM94.8068 82.0021C94.8067 80.6376 94.8065 79.2736 94.8071 77.9097L91.8071 77.9083C91.8065 79.2733 91.8067 80.6382 91.8068 82.0025L94.8068 82.0021ZM94.8056 87.4568C94.8073 85.6382 94.8071 83.8197 94.8068 82.0021L91.8068 82.0025C91.8071 83.8204 91.8073 85.6373 91.8056 87.454L94.8056 87.4568ZM92.0087 94.3748C93.8865 92.5344 94.7988 89.9549 94.8056 87.4595L91.8056 87.4513C91.8007 89.2616 91.1337 91.0317 89.9088 92.2323L92.0087 94.3748ZM94.5773 96.7057C94.2159 94.9655 93.2848 93.3595 91.953 92.1804L89.9644 94.4267C90.8119 95.1769 91.4101 96.209 91.6399 97.3156L94.5773 96.7057ZM94.8106 111.699C94.8174 109.1 94.8264 105.688 94.8038 102.792C94.7926 101.345 94.7734 100.017 94.7417 98.9793C94.7259 98.4614 94.7067 98.0057 94.683 97.6389C94.6616 97.308 94.6313 96.9484 94.5729 96.6853L91.6443 97.3361C91.6406 97.3193 91.6475 97.3482 91.6586 97.4529C91.6685 97.5471 91.6789 97.6728 91.6892 97.8322C91.7098 98.1506 91.7277 98.5683 91.7431 99.0709C91.7737 100.074 91.7927 101.375 91.8039 102.815C91.8263 105.693 91.8174 109.089 91.8106 111.691L94.8106 111.699ZM94.8106 111.711L94.8106 111.698L91.8106 111.693L91.8106 111.706L94.8106 111.711ZM94.8056 114.075C94.8061 113.423 94.8082 112.618 94.8106 111.712L91.8106 111.704C91.8082 112.609 91.8061 113.418 91.8056 114.073L94.8056 114.075ZM94.2393 117.14C94.6699 116.104 94.7733 115.027 94.8047 114.127L91.8065 114.022C91.7791 114.807 91.6914 115.453 91.4691 115.988L94.2393 117.14ZM91.734 120.101C92.7302 119.43 93.7431 118.451 94.2568 117.095L91.4515 116.032C91.233 116.609 90.7489 117.147 90.057 117.614L91.734 120.101ZM106.995 117.358C101.628 117.361 96.2631 117.361 90.8963 117.358L90.8947 120.358C96.2625 120.361 101.629 120.361 106.997 120.358L106.995 117.358ZM104.21 118.094C104.735 118.925 105.433 119.56 106.095 120.057L107.896 117.658C107.391 117.279 107.004 116.899 106.746 116.492L104.21 118.094ZM103.042 113.489C103.051 114.906 103.248 116.631 104.225 118.117L106.732 116.469C106.232 115.708 106.05 114.687 106.042 113.469L103.042 113.489ZM104.545 102.31C103.045 102.31 103.045 102.31 103.045 102.31C103.045 102.31 103.045 102.31 103.045 102.31C103.045 102.31 103.045 102.311 103.045 102.311C103.045 102.312 103.045 102.313 103.045 102.315C103.045 102.319 103.045 102.324 103.045 102.331C103.045 102.345 103.045 102.367 103.045 102.394C103.045 102.45 103.045 102.532 103.044 102.637C103.044 102.848 103.044 103.153 103.044 103.531C103.044 104.288 103.043 105.335 103.043 106.498C103.042 108.825 103.042 111.618 103.042 113.479H106.042C106.042 111.618 106.042 108.826 106.043 106.499C106.043 105.336 106.044 104.289 106.044 103.533C106.044 103.154 106.044 102.849 106.044 102.638C106.045 102.533 106.045 102.451 106.045 102.395C106.045 102.368 106.045 102.347 106.045 102.332C106.045 102.325 106.045 102.32 106.045 102.316C106.045 102.315 106.045 102.313 106.045 102.312C106.045 102.312 106.045 102.311 106.045 102.311C106.045 102.311 106.045 102.311 106.045 102.311C106.045 102.311 106.045 102.311 104.545 102.31ZM116.914 121.763L105.86 101.59L103.229 103.031L114.283 123.205L116.914 121.763ZM132.372 127.241L116.13 121.081L115.066 123.886L131.308 130.046L132.372 127.241ZM133.202 127.945L133.008 127.703L130.671 129.584L130.865 129.826L133.202 127.945ZM130.498 128.809L130.557 129.144L133.511 128.626L133.453 128.291L130.498 128.809ZM112.273 98.1157L130.683 129.312L133.267 127.787L114.856 96.5909L112.273 98.1157ZM120.551 91.9012C119.266 92.588 117.341 93.621 115.739 94.4818C114.937 94.9123 114.216 95.2999 113.695 95.5799C113.435 95.7199 113.225 95.833 113.079 95.911C113.007 95.9501 112.95 95.9804 112.912 96.0009C112.893 96.0112 112.879 96.019 112.869 96.0243C112.864 96.0269 112.86 96.0289 112.858 96.0303C112.857 96.0309 112.856 96.0314 112.855 96.0318C112.855 96.0319 112.854 96.0321 112.854 96.0321C112.854 96.0322 112.854 96.0322 112.854 96.0322C112.854 96.0323 112.854 96.0323 113.565 97.3533C114.275 98.6743 114.275 98.6743 114.275 98.6743C114.275 98.6743 114.275 98.6743 114.275 98.6742C114.276 98.6741 114.276 98.674 114.276 98.6738C114.277 98.6735 114.278 98.673 114.279 98.6723C114.281 98.671 114.285 98.669 114.29 98.6664C114.3 98.6611 114.314 98.6533 114.333 98.6431C114.371 98.6225 114.428 98.5923 114.5 98.5533C114.645 98.4752 114.856 98.3622 115.116 98.2222C115.636 97.9424 116.357 97.5549 117.158 97.1246C118.761 96.2638 120.683 95.2322 121.965 94.5471L120.551 91.9012ZM119.757 89.0117C119.757 90.4161 119.758 91.8203 119.758 93.2245L122.758 93.2238C122.758 91.8194 122.757 90.415 122.757 89.0106L119.757 89.0117ZM119.757 89.0109V89.0112H122.757V89.0109H119.757ZM119.757 89.0106V89.0109H122.757V89.0106H119.757ZM119.761 73.5319C119.753 78.692 119.755 83.8526 119.757 89.0111L122.757 89.01C122.755 83.8511 122.753 78.6933 122.761 73.5366L119.761 73.5319ZM106.255 67.2844C110.087 71.5049 115.427 74.2676 121.062 75.0211L121.46 72.0475C116.514 71.3863 111.824 68.9553 108.475 65.2675L106.255 67.2844ZM102.981 78.0024L102.99 96.435L105.99 96.4335L105.981 78.0009L102.981 78.0024ZM110.055 76.4943L104.479 76.5016L104.483 79.5016L110.059 79.4943L110.055 76.4943ZM111.559 93.2167L111.557 77.9941L108.557 77.9944L108.559 93.217L111.559 93.2167ZM105.241 97.733L110.809 94.5156L109.309 91.918L103.74 95.1354L105.241 97.733ZM139.92 65.1351C136.39 68.8585 131.706 71.5297 126.69 72.0739L127.014 75.0564C132.868 74.4213 138.177 71.3341 142.097 67.1991L139.92 65.1351ZM154.81 73.5416C155.299 72.1236 155.3 72.1236 155.3 72.1236C155.3 72.1236 155.3 72.1236 155.3 72.1236C155.3 72.1236 155.299 72.1235 155.299 72.1234C155.298 72.1231 155.297 72.1226 155.295 72.1219C155.291 72.1205 155.284 72.1183 155.275 72.1152C155.258 72.1091 155.231 72.0996 155.195 72.087C155.123 72.0617 155.016 72.0235 154.878 71.9733C154.601 71.8728 154.199 71.7242 153.704 71.5335C152.713 71.1517 151.356 70.6037 149.891 69.9388C146.884 68.5738 143.691 66.833 142.102 65.1405L139.915 67.1938C141.957 69.3687 145.665 71.3151 148.651 72.6705C150.183 73.3658 151.596 73.9363 152.625 74.3329C153.141 74.5315 153.561 74.6871 153.855 74.7935C154.002 74.8467 154.117 74.8877 154.196 74.9156C154.235 74.9296 154.266 74.9403 154.287 74.9477C154.298 74.9514 154.306 74.9543 154.312 74.9563C154.314 74.9573 154.317 74.9581 154.318 74.9586C154.319 74.9589 154.32 74.9591 154.32 74.9593C154.321 74.9594 154.321 74.9595 154.321 74.9596C154.321 74.9596 154.322 74.9597 154.81 73.5416ZM156.825 88.8503C156.699 88.4527 156.567 87.3627 156.473 85.7234C156.383 84.1626 156.335 82.2936 156.311 80.4852C156.286 78.6796 156.286 76.9483 156.292 75.6674C156.295 75.0273 156.3 74.5004 156.304 74.134C156.305 73.9507 156.307 73.8076 156.308 73.7106C156.309 73.6621 156.309 73.6251 156.31 73.6003C156.31 73.5879 156.31 73.5786 156.31 73.5724C156.31 73.5694 156.31 73.5671 156.31 73.5656C156.31 73.5648 156.31 73.5643 156.31 73.5639C156.31 73.5638 156.31 73.5637 156.31 73.5636C156.31 73.5635 156.31 73.5635 154.81 73.5416C153.311 73.5198 153.311 73.5199 153.311 73.52C153.311 73.5201 153.311 73.5203 153.311 73.5206C153.311 73.521 153.311 73.5217 153.311 73.5226C153.311 73.5243 153.311 73.5268 153.31 73.5302C153.31 73.5368 153.31 73.5466 153.31 73.5595C153.31 73.5853 153.309 73.6234 153.309 73.673C153.307 73.7721 153.306 73.9175 153.304 74.1032C153.3 74.4744 153.295 75.0069 153.292 75.6534C153.286 76.9456 153.286 78.6962 153.311 80.5255C153.336 82.3519 153.385 84.2708 153.478 85.8953C153.567 87.4412 153.703 88.9336 153.966 89.7603L156.825 88.8503ZM158.972 92.0688C157.958 91.2051 157.193 90.0946 156.834 88.8802L153.957 89.7303C154.501 91.5716 155.628 93.161 157.028 94.353L158.972 92.0688ZM156.384 99.7212C156.624 97.6842 157.592 95.7372 159.06 94.2725L156.94 92.1493C155.014 94.0726 153.726 96.6371 153.405 99.3704L156.384 99.7212ZM156.301 112.434C156.296 110.137 156.288 107.191 156.298 104.683C156.307 102.111 156.336 100.152 156.385 99.7133L153.404 99.3783C153.331 100.026 153.307 102.217 153.298 104.672C153.288 107.19 153.296 110.147 153.301 112.441L156.301 112.434ZM156.301 112.461L156.301 112.433L153.301 112.442L153.301 112.471L156.301 112.461ZM156.306 114.857C156.306 114.216 156.304 113.393 156.301 112.462L153.301 112.47C153.304 113.401 153.306 114.222 153.306 114.859L156.306 114.857ZM141.986 123.415C145.318 119.619 150.021 117.051 155.016 116.343L154.596 113.373C148.88 114.183 143.53 117.108 139.731 121.435L141.986 123.415ZM126.626 116.33C131.294 117.047 135.718 118.947 139.743 123.428L141.974 121.423C137.426 116.36 132.341 114.172 127.081 113.365L126.626 116.33ZM125.356 112.702C125.354 113.415 125.352 114.133 125.354 114.852L128.354 114.844C128.352 114.135 128.354 113.426 128.356 112.712L125.356 112.702ZM125.356 112.706V112.707H128.356V112.706H125.356ZM125.332 108.23C125.366 109.71 125.361 111.194 125.356 112.701L128.356 112.711C128.361 111.211 128.366 109.687 128.331 108.16L125.332 108.23ZM124.293 104.498C125.007 105.452 125.308 106.764 125.332 108.22L128.331 108.171C128.302 106.409 127.944 104.368 126.694 102.699L124.293 104.498ZM123.244 103.412C123.71 103.833 124.032 104.132 124.271 104.467L126.716 102.729C126.255 102.081 125.678 101.568 125.254 101.185L123.244 103.412ZM123.188 103.359L123.188 103.36L125.309 101.238L125.309 101.238L123.188 103.359ZM123.131 103.31L123.243 103.412L125.254 101.186L125.141 101.084L123.131 103.31ZM125.294 96.7951C125.21 98.4796 124.472 100.065 123.233 101L125.039 103.395C127.115 101.829 128.171 99.3444 128.29 96.9439L125.294 96.7951ZM125.357 75.4937C125.374 81.7203 125.409 94.3138 125.293 96.7997L128.29 96.9393C128.41 94.3558 128.374 81.6416 128.357 75.4853L125.357 75.4937ZM125.357 75.4873V75.4895H128.357V75.4873H125.357ZM125.352 73.5687C125.353 74.0974 125.355 74.748 125.357 75.4915L128.357 75.4831C128.355 74.7394 128.353 74.0895 128.352 73.5616L125.352 73.5687ZM139.538 110.335L139.541 77.9974L136.541 77.9971L136.538 110.335L139.538 110.335ZM143.646 108.841L138.039 108.835L138.036 111.835L143.643 111.841L143.646 108.841ZM142.143 77.9944L142.145 110.341L145.145 110.341L145.143 77.9942L142.143 77.9944ZM138.042 79.4972L143.644 79.4943L143.643 76.4943L138.04 76.4972L138.042 79.4972ZM22.9991 75.0196C25.3986 75.0211 28.9976 75.0218 31.9965 75.0222C33.4959 75.0223 34.8455 75.0224 35.8201 75.0225C36.3075 75.0225 36.7011 75.0225 36.9729 75.0225C37.1088 75.0225 37.2142 75.0225 37.2857 75.0225C37.3214 75.0225 37.3486 75.0225 37.3669 75.0225C37.3761 75.0225 37.383 75.0225 37.3877 75.0225C37.39 75.0225 37.3917 75.0225 37.3929 75.0225C37.3935 75.0225 37.3939 75.0225 37.3942 75.0225C37.3943 75.0225 37.3944 75.0225 37.3945 75.0225C37.3946 75.0225 37.3946 75.0225 37.3946 73.5225C37.3946 72.0225 37.3946 72.0225 37.3945 72.0225C37.3944 72.0225 37.3943 72.0225 37.3942 72.0225C37.3939 72.0225 37.3935 72.0225 37.3929 72.0225C37.3917 72.0225 37.39 72.0225 37.3877 72.0225C37.383 72.0225 37.3761 72.0225 37.367 72.0225C37.3487 72.0225 37.3214 72.0225 37.2857 72.0225C37.2142 72.0225 37.1088 72.0225 36.9729 72.0225C36.7012 72.0225 36.3076 72.0225 35.8203 72.0225C34.8457 72.0224 33.4962 72.0223 31.9968 72.0222C28.9979 72.0218 25.3996 72.0211 23.0009 72.0196L22.9991 75.0196ZM27.2618 76.9006C26.7206 74.9953 25.4772 73.3223 23.8076 72.2556L22.1924 74.7836C23.2432 75.455 24.035 76.52 24.376 77.7204L27.2618 76.9006ZM26.9807 99.1169C27.1588 98.6422 27.2644 97.9559 27.3417 97.2797C27.4251 96.5509 27.4929 95.6563 27.5473 94.6641C27.6562 92.6768 27.7147 90.2348 27.7286 87.8161C27.7426 85.3964 27.7121 82.9825 27.6413 81.0493C27.6059 80.084 27.5601 79.2263 27.5033 78.5423C27.4515 77.9174 27.3803 77.2808 27.2515 76.8659L24.3863 77.7551C24.3846 77.7496 24.4054 77.8259 24.4346 78.0366C24.4611 78.2283 24.4878 78.4798 24.5136 78.7903C24.565 79.4102 24.6088 80.2172 24.6433 81.1591C24.7122 83.0402 24.7425 85.4105 24.7287 87.7988C24.7149 90.188 24.6571 92.5777 24.5517 94.4999C24.499 95.4625 24.4351 96.2921 24.3612 96.9387C24.3242 97.2623 24.2861 97.5265 24.2485 97.7313C24.2297 97.8331 24.2124 97.913 24.1973 97.9733C24.1899 98.003 24.1836 98.0254 24.1788 98.0415C24.1739 98.0578 24.1714 98.0644 24.1719 98.0631L26.9807 99.1169ZM24.1903 103.265C25.2729 102.157 26.3891 100.79 26.9905 99.0901L24.1621 98.0898C23.7753 99.1836 23.0122 100.178 22.045 101.168L24.1903 103.265ZM26.906 105.059C26.2778 103.487 25.2237 102.209 24.1823 101.16L22.053 103.273C22.9702 104.197 23.7072 105.139 24.1201 106.173L26.906 105.059ZM27.3207 124.554C27.4128 124.188 27.4614 123.625 27.4958 123.066C27.5333 122.456 27.5614 121.692 27.5807 120.834C27.6194 119.113 27.624 116.971 27.5947 114.838C27.5654 112.706 27.502 110.566 27.4034 108.853C27.3542 107.998 27.2954 107.233 27.2253 106.621C27.1904 106.316 27.1508 106.033 27.105 105.787C27.064 105.568 27.0016 105.284 26.8939 105.03L24.1323 106.202C24.1071 106.143 24.123 106.161 24.1559 106.338C24.1841 106.489 24.2143 106.696 24.2448 106.963C24.3057 107.494 24.3607 108.196 24.4084 109.025C24.5036 110.679 24.566 112.772 24.595 114.879C24.6239 116.985 24.6192 119.09 24.5815 120.766C24.5626 121.605 24.5357 122.326 24.5015 122.882C24.4844 123.16 24.466 123.387 24.4473 123.56C24.4267 123.75 24.4111 123.823 24.4113 123.822L27.3207 124.554ZM23.7816 129.737C25.7357 128.544 26.8596 126.5 27.3255 124.534L24.4064 123.842C24.0665 125.276 23.2994 126.517 22.2184 127.177L23.7816 129.737ZM37.4137 128.464C37.4121 126.964 37.4121 126.964 37.412 126.964C37.412 126.964 37.4119 126.964 37.4117 126.964C37.4114 126.964 37.411 126.964 37.4104 126.964C37.4092 126.964 37.4075 126.964 37.4052 126.964C37.4006 126.964 37.3936 126.964 37.3845 126.964C37.3662 126.965 37.3389 126.965 37.3032 126.965C37.2316 126.965 37.1261 126.965 36.9901 126.965C36.718 126.965 36.324 126.965 35.8361 126.966C34.8604 126.966 33.5093 126.967 32.0082 126.967C29.0052 126.968 25.4044 126.966 23.0055 126.957L22.9945 129.957C25.3997 129.966 29.0057 129.968 32.0086 129.967C33.5104 129.967 34.8621 129.966 35.8382 129.966C36.3263 129.965 36.7206 129.965 36.9928 129.965C37.1289 129.965 37.2345 129.965 37.3061 129.965C37.3419 129.965 37.3692 129.965 37.3876 129.964C37.3968 129.964 37.4037 129.964 37.4083 129.964C37.4107 129.964 37.4124 129.964 37.4136 129.964C37.4142 129.964 37.4146 129.964 37.4149 129.964C37.4151 129.964 37.4152 129.964 37.4152 129.964C37.4153 129.964 37.4154 129.964 37.4137 128.464ZM35.9329 102.245L35.9137 128.463L38.9137 128.466L38.9329 102.247L35.9329 102.245ZM42.2342 97.8091L36.6948 100.94L38.1709 103.551L43.7102 100.421L42.2342 97.8091ZM44.4531 111.728L44.4722 99.1172L41.4722 99.1127L41.4531 111.724L44.4531 111.728ZM44.481 118.85L44.4531 111.72L41.4531 111.732L41.481 118.862L44.481 118.85ZM56.5718 117.353C54.3082 117.359 50.9115 117.36 48.0792 117.359C46.6634 117.359 45.3892 117.358 44.4689 117.357C44.0088 117.357 43.6371 117.357 43.3806 117.357C43.2523 117.357 43.1527 117.356 43.0853 117.356C43.0516 117.356 43.0258 117.356 43.0086 117.356C42.9999 117.356 42.9934 117.356 42.989 117.356C42.9869 117.356 42.9852 117.356 42.9841 117.356C42.9836 117.356 42.9832 117.356 42.9829 117.356C42.9828 117.356 42.9827 117.356 42.9826 117.356C42.9825 117.356 42.9825 117.356 42.981 118.856C42.9796 120.356 42.9796 120.356 42.9797 120.356C42.9797 120.356 42.9798 120.356 42.98 120.356C42.9803 120.356 42.9807 120.356 42.9812 120.356C42.9823 120.356 42.984 120.356 42.9862 120.356C42.9905 120.356 42.9971 120.356 43.0057 120.356C43.023 120.356 43.0488 120.356 43.0825 120.356C43.15 120.356 43.2496 120.357 43.378 120.357C43.6347 120.357 44.0065 120.357 44.4668 120.357C45.3874 120.358 46.6621 120.359 48.0785 120.359C50.9106 120.36 54.3112 120.359 56.5796 120.353L56.5718 117.353ZM53.4288 117.628C53.9936 118.775 54.9436 119.546 55.7199 120.085L57.4315 117.621C56.7726 117.164 56.3404 116.75 56.1199 116.302L53.4288 117.628ZM52.6671 113.468C52.655 114.68 52.7156 116.229 53.4379 117.646L56.1108 116.284C55.742 115.56 55.6555 114.648 55.667 113.498L52.6671 113.468ZM52.6669 107.504C52.6678 109.497 52.6687 111.49 52.667 113.482L55.667 113.484C55.6687 111.49 55.6678 109.495 55.6669 107.502L52.6669 107.504ZM52.6729 98.0298C52.6639 101.189 52.6654 104.348 52.6669 107.504L55.6669 107.502C55.6654 104.346 55.6639 101.192 55.6729 98.0384L52.6729 98.0298ZM55.5429 92.1178C54.0251 93.5357 52.692 95.5839 52.673 98.0224L55.6729 98.0458C55.6833 96.717 56.4265 95.3977 57.5909 94.31L55.5429 92.1178ZM53.5801 91.6983C54.0829 92.7432 54.818 93.5863 55.5062 94.2745L57.6275 92.1532C57.0335 91.5591 56.5716 90.9965 56.2833 90.3974L53.5801 91.6983ZM52.6671 87.31C52.6588 88.7469 52.8938 90.2862 53.5826 91.7035L56.2808 90.3922C55.8462 89.4979 55.6606 88.4432 55.667 87.3273L52.6671 87.31ZM52.6669 83.7287C52.6678 84.926 52.6687 86.1214 52.667 87.3165L55.667 87.3208C55.6687 86.1218 55.6678 84.9231 55.6669 83.7264L52.6669 83.7287ZM52.6729 78.0342C52.6639 79.9345 52.6654 81.834 52.6669 83.7287L55.6669 83.7264C55.6654 81.8303 55.6639 79.939 55.6729 78.0485L52.6729 78.0342ZM55.7083 72.2779C53.7783 73.5812 52.7172 75.7985 52.6732 78.0115L55.6726 78.0711C55.6992 76.7314 56.3469 75.4666 57.3872 74.7642L55.7083 72.2779ZM42.9575 73.5255C42.9577 75.0255 42.9578 75.0255 42.9578 75.0255C42.9579 75.0255 42.958 75.0255 42.9582 75.0255C42.9584 75.0255 42.9588 75.0255 42.9594 75.0255C42.9605 75.0255 42.9621 75.0255 42.9643 75.0255C42.9687 75.0255 42.9752 75.0255 42.9839 75.0255C43.0012 75.0255 43.0269 75.0255 43.0606 75.0254C43.1281 75.0254 43.2276 75.0254 43.3559 75.0254C43.6125 75.0254 43.9841 75.0253 44.4442 75.0252C45.3643 75.025 46.6384 75.0247 48.0541 75.0244C50.8853 75.0236 54.2831 75.0225 56.5487 75.0211L56.5468 72.0211C54.2818 72.0225 50.8845 72.0236 48.0533 72.0244C46.6377 72.0247 45.3637 72.025 44.4436 72.0252C43.9835 72.0253 43.6119 72.0254 43.3554 72.0254C43.2271 72.0254 43.1275 72.0254 43.0601 72.0254C43.0264 72.0255 43.0007 72.0255 42.9834 72.0255C42.9747 72.0255 42.9682 72.0255 42.9638 72.0255C42.9616 72.0255 42.96 72.0255 42.9589 72.0255C42.9584 72.0255 42.9579 72.0255 42.9577 72.0255C42.9575 72.0255 42.9574 72.0255 42.9574 72.0255C42.9573 72.0255 42.9573 72.0255 42.9575 73.5255ZM44.459 93.2226L44.4575 73.5254L41.4575 73.5256L41.459 93.2228L44.459 93.2226ZM38.134 97.7219L43.7057 94.5236L42.2122 91.9218L36.6405 95.1201L38.134 97.7219ZM35.8946 73.522L35.8873 96.4205L38.8873 96.4215L38.8946 73.523L35.8946 73.522Z" fill="#231F20"/>
<path d="M29.3917 143.496C28.4917 144.018 27.8077 144.792 27.3037 145.692V142.56H22.9837V162H27.9157V152.064C27.9157 149.832 28.8517 148.248 30.5797 147.456C31.7317 146.916 33.3157 146.808 34.3957 147.132V142.56C32.6317 142.344 30.7957 142.632 29.3917 143.496ZM40.762 153.648H54.406C55 146.592 51.436 142.02 45.316 142.02C39.556 142.02 35.488 146.16 35.488 152.532C35.488 158.364 39.628 162.54 45.604 162.54C49.348 162.54 52.768 160.488 54.244 156.924L49.348 155.52C48.628 157.104 47.224 157.968 45.316 157.968C42.67 157.968 41.122 156.42 40.762 153.648ZM45.532 146.268C47.89 146.268 49.114 147.384 49.456 150.012H40.888C41.392 147.546 42.904 146.268 45.532 146.268ZM78.607 142.092C76.105 142.092 73.927 143.244 72.667 145.116C71.659 143.298 69.805 142.092 67.015 142.092C64.675 142.092 62.623 143.082 61.327 144.684V142.56H57.007V162H61.939V150.228C61.939 147.996 63.271 146.448 65.323 146.448C67.447 146.448 68.743 147.96 68.743 150.516V162H73.639V150.228C73.639 147.996 74.971 146.448 77.023 146.448C79.147 146.448 80.443 147.96 80.443 150.516V162H85.339V149.22C85.339 144.972 83.035 142.092 78.607 142.092ZM89.4796 139.86H94.3756V135.54H89.4796V139.86ZM89.4796 162H94.3756V142.56H89.4796V162ZM96.712 162H102.472L106.504 156.024L110.5 162H116.26L109.276 152.172L116.08 142.56H110.32L106.504 148.32L102.616 142.56H96.856L103.66 152.172L96.712 162ZM121.748 153.648H135.392C135.986 146.592 132.422 142.02 126.302 142.02C120.542 142.02 116.474 146.16 116.474 152.532C116.474 158.364 120.614 162.54 126.59 162.54C130.334 162.54 133.754 160.488 135.23 156.924L130.334 155.52C129.614 157.104 128.21 157.968 126.302 157.968C123.656 157.968 122.108 156.42 121.748 153.648ZM126.518 146.268C128.876 146.268 130.1 147.384 130.442 150.012H121.874C122.378 147.546 123.89 146.268 126.518 146.268ZM151.084 136.08V143.208C149.878 142.452 148.402 142.02 146.692 142.02C141.112 142.02 137.476 146.34 137.476 152.28C137.476 158.112 141.076 162.54 146.44 162.54C148.582 162.54 150.328 161.928 151.696 160.884V162H156.016V136.08H151.084ZM147.232 158.184C144.064 158.184 142.66 155.556 142.66 152.28C142.66 149.04 144.136 146.376 147.412 146.376C150.472 146.376 151.696 148.752 151.696 152.28C151.696 155.808 150.508 158.184 147.232 158.184Z" fill="#231F20"/>
</svg>
